<svg id="Layer_5" enable-background="new 0 0 64 64" height="512" viewBox="0 0 64 64" width="512" xmlns="http://www.w3.org/2000/svg"><path d="m48 5h-26c-1.103 0-2 .897-2 2v18c0 1.103.897 2 2 2h26c1.103 0 2-.897 2-2v-18c0-1.103-.897-2-2-2zm-26 20v-18h26l.001 18z"/><path d="m33 41c-4.963 0-9 4.037-9 9s4.037 9 9 9 9-4.037 9-9-4.037-9-9-9zm4.184 3.402-2.899 2.899c-.391-.188-.823-.301-1.285-.301s-.894.113-1.285.301l-2.899-2.899c1.169-.876 2.614-1.402 4.184-1.402s3.015.526 4.184 1.402zm-5.184 5.598c0-.552.448-1 1-1s1 .448 1 1-.448 1-1 1-1-.448-1-1zm-4.598-4.184 2.899 2.899c-.188.391-.301.823-.301 1.285s.113.894.301 1.285l-2.899 2.899c-.876-1.169-1.402-2.614-1.402-4.184s.526-3.015 1.402-4.184zm1.414 9.782 2.899-2.899c.391.188.823.301 1.285.301s.894-.113 1.285-.301l2.899 2.899c-1.169.876-2.614 1.402-4.184 1.402s-3.015-.526-4.184-1.402zm9.782-1.414-2.899-2.899c.188-.391.301-.823.301-1.285s-.113-.894-.301-1.285l2.899-2.899c.876 1.169 1.402 2.614 1.402 4.184s-.526 3.015-1.402 4.184z"/><path d="m48 40c0-1.654-1.346-3-3-3s-3 1.346-3 3 1.346 3 3 3 3-1.346 3-3zm-4 0c0-.552.448-1 1-1s1 .448 1 1-.448 1-1 1-1-.448-1-1z"/><path d="m47 45c-1.654 0-3 1.346-3 3s1.346 3 3 3 3-1.346 3-3-1.346-3-3-3zm0 4c-.552 0-1-.448-1-1s.448-1 1-1 1 .448 1 1-.448 1-1 1z"/><path d="m21 37c-1.654 0-3 1.346-3 3s1.346 3 3 3 3-1.346 3-3-1.346-3-3-3zm0 4c-.552 0-1-.448-1-1s.448-1 1-1 1 .448 1 1-.448 1-1 1z"/><path d="m19 45c-1.654 0-3 1.346-3 3s1.346 3 3 3 3-1.346 3-3-1.346-3-3-3zm0 4c-.552 0-1-.448-1-1s.448-1 1-1 1 .448 1 1-.448 1-1 1z"/><path d="m24 15h6v-6h-6zm2-4h2v2h-2z"/><path d="m24 23h6v-6h-6zm2-4h2v2h-2z"/><path d="m32 9h14v2h-14z"/><path d="m32 13h14v2h-14z"/><path d="m32 17h14v2h-14z"/><path d="m32 21h14v2h-14z"/><path d="m18 35h6c1.103 0 2-.897 2-2v-2c0-1.103-.897-2-2-2h-6c-1.103 0-2 .897-2 2v2c0 1.103.897 2 2 2zm0-4h6l.002 2h-6.002z"/><path d="m36 35c1.103 0 2-.897 2-2v-2c0-1.103-.897-2-2-2h-6c-1.103 0-2 .897-2 2v2c0 1.103.897 2 2 2zm-6-4h6l.002 2h-6.002z"/><path d="m48 29h-6c-1.103 0-2 .897-2 2v2c0 1.103.897 2 2 2h6c1.103 0 2-.897 2-2v-2c0-1.103-.897-2-2-2zm-6 4v-2h6l.002 2z"/><path d="m51 1h-36c-1.654 0-3 1.346-3 3v1c-1.103 0-2 .897-2 2v2c0 1.103.897 2 2 2v2c-1.103 0-2 .897-2 2v2c0 1.103.897 2 2 2v2c-1.103 0-2 .897-2 2v2c0 1.103.897 2 2 2v25c0 6.065 4.935 11 11 11h20c6.065 0 11-4.935 11-11v-48c0-1.654-1.346-3-3-3zm-39 6h4l.001 2h-4.001zm0 8h4l.001 2h-4.001zm0 8h4l.001 2h-4.001zm40 29c0 4.963-4.037 9-9 9h-20c-4.963 0-9-4.037-9-9v-25h2c1.103 0 2-.897 2-2v-2c0-1.103-.897-2-2-2h-2v-2h2c1.103 0 2-.897 2-2v-2c0-1.103-.897-2-2-2h-2v-2h2c1.103 0 2-.897 2-2v-2c0-1.103-.897-2-2-2h-2v-1c0-.551.448-1 1-1h36c.552 0 1 .449 1 1z"/></svg>