<svg id="Capa_1" enable-background="new 0 0 512 512" height="512" viewBox="0 0 512 512" width="512" xmlns="http://www.w3.org/2000/svg"><g><path d="m492.637 55.292h-376.488c-4.142 0-7.5 3.358-7.5 7.5s3.358 7.5 7.5 7.5h376.488c2.406 0 4.363 1.957 4.363 4.363v248.857h-90.737v-19.817c0-4.142-3.357-7.5-7.5-7.5h-20.311c-3.183-15.445-9.329-30.271-18.025-43.478l14.373-14.373c2.929-2.929 2.929-7.678 0-10.606l-25.097-25.097c-2.93-2.929-7.678-2.929-10.607 0l-14.372 14.373c-13.207-8.697-28.032-14.843-43.478-18.024v-20.311c0-4.142-3.357-7.5-7.5-7.5h-35.492c-4.142 0-7.5 3.358-7.5 7.5v20.311c-15.446 3.182-30.271 9.328-43.479 18.024l-14.373-14.373c-1.406-1.407-3.314-2.197-5.303-2.197s-3.897.79-5.303 2.197l-25.096 25.097c-2.929 2.929-2.929 7.678 0 10.606l14.372 14.373c-8.697 13.207-14.843 28.033-18.025 43.478h-20.311c-4.142 0-7.5 3.358-7.5 7.5v19.817h-90.736v-248.857c0-2.406 1.957-4.363 4.363-4.363h66.786c4.142 0 7.5-3.358 7.5-7.5s-3.358-7.5-7.5-7.5h-66.786c-10.677 0-19.363 8.686-19.363 19.363v315.656c0 10.677 8.686 19.363 19.363 19.363h170.794v32.033h-14.384c-4.142 0-7.5 3.358-7.5 7.5s3.358 7.5 7.5 7.5h160.454c4.143 0 7.5-3.358 7.5-7.5s-3.357-7.5-7.5-7.5h-14.385v-32.033h58.491c4.143 0 7.5-3.358 7.5-7.5s-3.357-7.5-7.5-7.5h-360.97c-2.406 0-4.363-1.958-4.363-4.363v-51.8h482v51.8c0 2.406-1.957 4.363-4.363 4.363h-82.304c-4.143 0-7.5 3.358-7.5 7.5s3.357 7.5 7.5 7.5h82.304c10.677 0 19.363-8.686 19.363-19.363v-315.656c0-10.677-8.686-19.363-19.363-19.363zm-185.795 386.416h-101.685v-32.033h101.685zm-95.931-120.267c0-24.862 20.227-45.089 45.089-45.089s45.089 20.227 45.089 45.089c0 .687-.017 1.378-.05 2.071h-90.078c-.033-.693-.05-1.384-.05-2.071zm105.141 2.071c.024-.692.037-1.383.037-2.071 0-33.133-26.956-60.089-60.089-60.089s-60.089 26.956-60.089 60.089c0 .688.012 1.379.037 2.071h-75.211v-12.317h19.086c3.708 0 6.86-2.71 7.416-6.376 2.645-17.463 9.6-34.242 20.113-48.521 2.198-2.985 1.885-7.128-.736-9.75l-13.506-13.506 14.49-14.49 13.506 13.506c2.621 2.621 6.765 2.934 9.75.736 14.28-10.513 31.058-17.468 48.521-20.113 3.667-.556 6.377-3.707 6.377-7.416v-19.086h20.492v19.086c0 3.708 2.71 6.86 6.377 7.416 17.462 2.645 34.24 9.6 48.521 20.113 2.984 2.199 7.128 1.886 9.75-.736l13.506-13.506 14.49 14.49-13.507 13.506c-2.621 2.621-2.934 6.765-.736 9.75 10.513 14.28 17.468 31.058 20.114 48.521.555 3.667 3.707 6.376 7.415 6.376h19.087v12.317z"/><path d="m159.825 111.451c0-4.142-3.358-7.5-7.5-7.5h-97.931c-4.142 0-7.5 3.358-7.5 7.5s3.358 7.5 7.5 7.5h97.931c4.142 0 7.5-3.358 7.5-7.5z"/><path d="m54.394 137.565c-4.142 0-7.5 3.358-7.5 7.5s3.358 7.5 7.5 7.5h31.755c4.142 0 7.5-3.358 7.5-7.5s-3.358-7.5-7.5-7.5z"/><path d="m435.477 152.565h31.755c4.143 0 7.5-3.358 7.5-7.5s-3.357-7.5-7.5-7.5h-31.755c-4.143 0-7.5 3.358-7.5 7.5s3.357 7.5 7.5 7.5z"/><path d="m435.477 186.179h31.755c4.143 0 7.5-3.358 7.5-7.5s-3.357-7.5-7.5-7.5h-31.755c-4.143 0-7.5 3.358-7.5 7.5s3.357 7.5 7.5 7.5z"/><path d="m435.477 219.792h31.755c4.143 0 7.5-3.358 7.5-7.5s-3.357-7.5-7.5-7.5h-31.755c-4.143 0-7.5 3.358-7.5 7.5s3.357 7.5 7.5 7.5z"/></g></svg>