<svg id="bold" enable-background="new 0 0 24 24" height="512" viewBox="0 0 24 24" width="512" xmlns="http://www.w3.org/2000/svg"><path d="m15.25 16.5c-.173 0-.346-.059-.488-.181-.314-.27-.351-.743-.081-1.058l1.081-1.261-1.082-1.262c-.27-.314-.233-.788.081-1.058.316-.27.789-.233 1.058.081l1.5 1.75c.241.281.241.695 0 .977l-1.5 1.75c-.148.173-.358.262-.569.262z"/><path d="m8.75 16.5c-.211 0-.421-.089-.57-.262l-1.5-1.75c-.241-.281-.241-.695 0-.977l1.5-1.75c.27-.314.743-.352 1.058-.081.314.27.351.743.081 1.058l-1.081 1.262 1.082 1.262c.27.314.233.788-.081 1.058-.142.12-.316.18-.489.18z"/><path d="m11.082 17.981c-.404-.093-.655-.496-.563-.899l1.5-6.5c.093-.403.496-.652.899-.563.404.093.655.496.563.899l-1.5 6.5c-.091.397-.486.656-.899.563z"/><path d="m21 1h-18c-1.65 0-3 1.35-3 3v16c0 1.65 1.35 3 3 3h18c1.65 0 3-1.35 3-3v-16c0-1.65-1.35-3-3-3zm1 19c0 .55-.45 1-1 1h-18c-.55 0-1-.45-1-1v-14h20z"/></svg>