<svg id="_x33_0" enable-background="new 0 0 64 64" height="512" viewBox="0 0 64 64" width="512" xmlns="http://www.w3.org/2000/svg"><g><path d="m34.48 51.685c.328-.481.52-1.061.52-1.685 0-1.654-1.346-3-3-3s-3 1.346-3 3c0 .624.192 1.204.52 1.685-1.498.864-2.52 2.465-2.52 4.315v3h10v-3c0-1.85-1.022-3.451-2.52-4.315zm-3.48-1.685c0-.551.449-1 1-1s1 .449 1 1-.449 1-1 1-1-.449-1-1zm4 7h-6v-1c0-1.654 1.346-3 3-3s3 1.346 3 3z"/><path d="m61 43h-2v-15c0-1.203-.716-2.235-1.739-2.713 2.26-1.636 3.739-4.289 3.739-7.287 0-4.962-4.038-9-9-9-2.962 0-5.586 1.445-7.227 3.659l.132-.927c.063-.44.095-.886.095-1.336 0-5.181-4.215-9.396-9.396-9.396h-7.151c-2.521 0-4.889.985-6.667 2.774-1.777 1.789-2.747 4.163-2.73 6.685.003.406.032.816.088 1.22l.678 4.919c-.508.671-.822 1.497-.822 2.402 0 2.206 1.794 4 4 4h.08c.37 2.567 2.133 4.683 4.499 5.559l-.388 1.553-1.426.219c-6.578 1.012-11.652 6.16-12.64 12.668h-10.125c-1.103 0-2 .897-2 2v16c0 1.103.897 2 2 2h14c1.103 0 2-.897 2-2v-9.999h4v10c0 1.103.897 2 2 2h14c1.103 0 2-.897 2-2v-10h4v10c0 1.103.897 2 2 2h14c1.103 0 2-.897 2-2v-16c0-1.103-.897-2-2-2zm-10.763 0 1.296-6.047c.153.024.307.047.467.047 1.383 0 2.539-.945 2.884-2.22.346.139.721.22 1.116.22.352 0 .686-.072 1-.184v8.184zm-20.261-9.268-2.419.968-.987-2.469 1.166-.179zm1.745 5.268h.559l1.333 4h-3.225zm.586-2h-.614l-.587-1.565.894-.358.894.357zm1.717-3.268 2.24-1.68 1.166.179-.987 2.469zm4.211-3.4-1.426-.219-.388-1.553c2.366-.877 4.13-2.993 4.499-5.559h.08c1.117 0 2.125-.462 2.852-1.203.653 1.396 1.651 2.595 2.888 3.49-1.024.477-1.74 1.509-1.74 2.712 0 1.654 1.346 3 3 3 .352 0 .686-.072 1-.184v3.184c0 .731.273 1.393.71 1.915l-.468 2.183c-2.221-4.108-6.271-7.037-11.007-7.766zm2.765-13.332c1.103 0 2 .897 2 2s-.897 2-2 2zm12 17c0 .551-.449 1-1 1s-1-.449-1-1v-7.059c.329.037.662.059 1 .059s.671-.022 1-.059zm-5-7c.551 0 1 .449 1 1s-.449 1-1 1-1-.449-1-1 .449-1 1-1zm8 6c-.551 0-1-.449-1-1v-4c0-.551.449-1 1-1s1 .449 1 1v4c0 .551-.449 1-1 1zm-4-22c3.86 0 7 3.14 7 7s-3.14 7-7 7-7-3.14-7-7 3.14-7 7-7zm-31 8c0-1.103.897-2 2-2v4c-1.103 0-2-.897-2-2zm2-5v1c-.474 0-.922.097-1.345.249l-.53-3.843c-.044-.318-.067-.641-.069-.96-.013-1.985.75-3.854 2.149-5.262s3.263-2.184 5.248-2.184h7.151c4.078 0 7.396 3.318 7.396 7.403 0 .348-.025.7-.074 1.046l-.544 3.811c-.433-.16-.895-.26-1.382-.26v-1.764c0-1.568-.779-2.991-2.061-3.84-.281-1.366-1.492-2.396-2.939-2.396h-1v2h1c.551 0 1 .449 1 1s-.449 1-1 1h-3c-2.206 0-4-1.794-4-4h-2c0 .726.136 1.419.373 2.063-2.459.313-4.373 2.395-4.373 4.937zm2 8v-8c0-1.654 1.346-3 3-3h.54c1.099 1.224 2.688 2 4.46 2h3c1.026 0 1.932-.519 2.474-1.308.326.441.526.97.526 1.544v8.764c0 2.757-2.243 5-5 5h-4c-2.757 0-5-2.243-5-5zm5 7h4c.156 0 .31-.013.463-.023l.405 1.622-2.868 2.151-2.869-2.152.405-1.622c.154.011.308.024.464.024zm-27 32v-16h14l.001 16zm20-16v4h-4v-4c0-1.103-.897-2-2-2h-1.858c.877-5.005 4.561-9.024 9.436-10.362l1.865 4.662 2.806-1.122.691 1.842-1.661 4.98h-3.279c-1.103 0-2 .897-2 2zm2 16v-16h14l.001 16zm20-16v4h-4v-4c0-1.103-.897-2-2-2h-3.279l-1.66-4.98.691-1.842 2.806 1.122 1.865-4.663c4.325 1.195 7.788 4.544 9.084 8.895l-.316 1.468h-1.191c-1.103 0-2 .897-2 2zm2 16v-16h14l.001 16z"/><path d="m56.48 51.685c.328-.481.52-1.061.52-1.685 0-1.654-1.346-3-3-3s-3 1.346-3 3c0 .624.192 1.204.52 1.685-1.498.864-2.52 2.465-2.52 4.315v3h10v-3c0-1.85-1.022-3.451-2.52-4.315zm-3.48-1.685c0-.551.449-1 1-1s1 .449 1 1-.449 1-1 1-1-.449-1-1zm4 7h-6v-1c0-1.654 1.346-3 3-3s3 1.346 3 3z"/><path d="m12.48 51.685c.328-.481.52-1.061.52-1.685 0-1.654-1.346-3-3-3s-3 1.346-3 3c0 .624.192 1.204.52 1.685-1.498.864-2.52 2.465-2.52 4.315v3h10v-3c0-1.85-1.022-3.451-2.52-4.315zm-3.48-1.685c0-.551.449-1 1-1s1 .449 1 1-.449 1-1 1-1-.449-1-1zm4 7h-6v-1c0-1.654 1.346-3 3-3s3 1.346 3 3z"/><circle cx="28" cy="16" r="1"/><circle cx="36" cy="16" r="1"/><path d="m37 21h-2c0 1.103-.897 2-2 2h-4v2h4c2.206 0 4-1.794 4-4z"/><path d="m52 23c2.757 0 5-2.243 5-5s-2.243-5-5-5-5 2.243-5 5 2.243 5 5 5zm0-8c1.654 0 3 1.346 3 3s-1.346 3-3 3-3-1.346-3-3 1.346-3 3-3z"/></g></svg>