<svg id="icons" enable-background="new 0 0 64 64" height="512" viewBox="0 0 64 64" width="512" xmlns="http://www.w3.org/2000/svg"><g><g><path d="m22.999 24.482c-.553 0-1-.447-1-1 0-1.654-1.346-3-3-3-.553 0-1-.447-1-1s.447-1 1-1c2.757 0 5 2.243 5 5 0 .553-.447 1-1 1z"/></g><g><path d="m13.999 24.482c-.553 0-1-.447-1-1 0-1.654-1.346-3-3-3-.553 0-1-.447-1-1s.447-1 1-1c2.757 0 5 2.243 5 5 0 .553-.447 1-1 1z"/></g><g><path d="m5.001 24.482c-.553 0-1-.447-1-1 0-1.654-1.346-3-3-3-.553 0-1-.447-1-1s.447-1 1-1c2.757 0 5 2.243 5 5 0 .553-.447 1-1 1z"/></g><g><path d="m18.999 20.482h-17.999c-.553 0-1-.447-1-1s.447-1 1-1h17.999c.553 0 1 .447 1 1s-.447 1-1 1z"/></g><g><path d="m41.001 24.482c-.553 0-1-.447-1-1 0-2.757 2.243-5 5-5 .553 0 1 .447 1 1s-.447 1-1 1c-1.654 0-3 1.346-3 3 0 .553-.447 1-1 1z"/></g><g><path d="m63 20.482h-17.999c-.553 0-1-.447-1-1s.447-1 1-1h17.999c.553 0 1 .447 1 1s-.447 1-1 1z"/></g><g><path d="m22.999 24.482c-.553 0-1-.447-1-1 0-2.206 1.794-4 4-4 .553 0 1 .447 1 1s-.447 1-1 1c-1.103 0-2 .897-2 2 0 .553-.447 1-1 1z"/></g><g><path d="m41.001 24.482c-.553 0-1-.447-1-1 0-1.103-.897-2-2-2-.553 0-1-.447-1-1s.447-1 1-1c2.206 0 4 1.794 4 4 0 .553-.447 1-1 1z"/></g><g><path d="m38.001 21.482h-12.002c-.553 0-1-.447-1-1s.447-1 1-1h12.002c.553 0 1 .447 1 1s-.447 1-1 1z"/></g><g><path d="m41.001 55.66c-.553 0-1-.447-1-1v-31.178c0-.553.447-1 1-1s1 .447 1 1v31.178c0 .553-.447 1-1 1z"/></g><g><path d="m22.999 55.66c-.553 0-1-.447-1-1v-31.178c0-.553.447-1 1-1s1 .447 1 1v31.178c0 .553-.447 1-1 1z"/></g><g><path d="m28 44.49c-.553 0-1-.447-1-1v-16.002c0-.553.447-1 1-1s1 .447 1 1v16.002c0 .553-.447 1-1 1z"/></g><g><path d="m31.999 49.477c-.553 0-1-.447-1-1v-9.99c0-.553.447-1 1-1s1 .447 1 1v9.99c0 .552-.447 1-1 1z"/></g><g><path d="m35.999 37.486c-.553 0-1-.447-1-1v-9.004c0-.553.447-1 1-1s1 .447 1 1v9.004c0 .553-.447 1-1 1z"/></g><g><path d="m42 61.482c-.553 0-1-.447-1-1s.447-1 1-1c1.103 0 2-.897 2-2s-.897-2-2-2c-.485 0-.958.185-1.331.521-.379.342-.959.342-1.338 0-.746-.672-1.916-.672-2.662 0-.379.342-.959.342-1.338 0-.746-.672-1.916-.672-2.662 0-.379.342-.959.342-1.338 0-.746-.672-1.916-.672-2.662 0-.379.342-.959.342-1.338 0-.746-.672-1.916-.672-2.662 0-.379.342-.959.342-1.338 0-.373-.336-.846-.521-1.331-.521-1.103 0-2 .897-2 2s.897 2 2 2c.553 0 1 .447 1 1s-.447 1-1 1c-2.206 0-4-1.794-4-4s1.794-4 4-4c.705 0 1.394.189 2 .545 1.213-.711 2.787-.711 4 0 1.213-.711 2.787-.711 4 0 1.213-.711 2.787-.711 4 0 1.213-.711 2.787-.711 4 0 .606-.355 1.295-.545 2-.545 2.206 0 4 1.794 4 4s-1.794 4-4 4z"/></g><g><path d="m63 61.484h-62c-.553 0-1-.447-1-1s.447-1 1-1h62c.553 0 1 .447 1 1s-.447 1-1 1z"/></g><g><path d="m13.999 61.484c-.553 0-1-.447-1-1v-37.002c0-.553.447-1 1-1s1 .447 1 1v37.002c0 .553-.447 1-1 1z"/></g><g><path d="m5.001 61.484c-.553 0-1-.447-1-1v-37.002c0-.553.447-1 1-1s1 .447 1 1v37.002c0 .553-.447 1-1 1z"/></g><g><path d="m50.001 24.482c-.553 0-1-.447-1-1 0-2.757 2.243-5 5-5 .553 0 1 .447 1 1s-.447 1-1 1c-1.654 0-3 1.346-3 3 0 .553-.447 1-1 1z"/></g><g><path d="m58.999 24.482c-.553 0-1-.447-1-1 0-2.757 2.243-5 5-5 .553 0 1 .447 1 1s-.447 1-1 1c-1.654 0-3 1.346-3 3 0 .553-.447 1-1 1z"/></g><g><path d="m50.001 61.484c-.553 0-1-.447-1-1v-37.002c0-.553.447-1 1-1s1 .447 1 1v37.002c0 .553-.447 1-1 1z"/></g><g><path d="m58.999 61.484c-.553 0-1-.447-1-1v-37.002c0-.553.447-1 1-1s1 .447 1 1v37.002c0 .553-.447 1-1 1z"/></g><g><g><path d="m10.004 20.512c-.553 0-1-.447-1-1v-3.99c0-.553.447-1 1-1s1 .447 1 1v3.99c0 .552-.447 1-1 1z"/></g><g><path d="m13.005 16.521h-6.001c-.323 0-.626-.156-.813-.419s-.237-.6-.133-.905l1.716-5.004c.18-.522.747-.799 1.271-.622.522.18.801.748.622 1.271l-1.262 3.68h3.2l-1.262-3.678c-.179-.522.1-1.091.622-1.271.522-.176 1.091.1 1.271.622l1.716 5.002c.104.306.056.643-.133.905-.188.263-.491.419-.814.419z"/></g><g><path d="m13.005 11.516h-6.001c-.336 0-.649-.169-.835-.449-.185-.281-.217-.636-.084-.944l3-7c.157-.368.519-.606.919-.606s.762.238.919.606l3.001 7c.133.309.101.663-.084.944-.186.28-.499.449-.835.449zm-4.484-2h2.968l-1.484-3.462z"/></g></g><g><g><path d="m53.017 20.512c-.553 0-1-.447-1-1v-2.99c0-.553.447-1 1-1s1 .447 1 1v2.99c0 .552-.448 1-1 1z"/></g><g><path d="m56.018 17.521h-6.001c-.336 0-.649-.169-.835-.449-.185-.281-.217-.636-.084-.945l1.716-4.002c.217-.508.807-.744 1.313-.524.507.218.742.806.524 1.313l-1.118 2.607h2.968l-1.118-2.605c-.218-.508.018-1.096.524-1.313.508-.221 1.096.017 1.313.524l1.716 4c.133.31.101.664-.084.945s-.498.449-.834.449z"/></g><g><path d="m56.018 13.518h-6.001c-.347 0-.669-.18-.851-.475-.183-.295-.199-.663-.044-.973l3-5.998c.34-.678 1.449-.678 1.789 0l3.001 5.998c.155.31.139.678-.044.973-.181.295-.504.475-.85.475zm-4.383-2h2.765l-1.383-2.763z"/></g></g></g></svg>