<svg id="Layer_1" enable-background="new 0 0 479.999 479.999" height="512" viewBox="0 0 479.999 479.999" width="512" xmlns="http://www.w3.org/2000/svg"><path d="m154.065 382.608c3.124 3.124 3.124 8.189 0 11.313l-9.899 9.899c-1.563 1.562-3.609 2.343-5.657 2.343-7.063 0-10.712-8.602-5.657-13.657l9.899-9.899c3.125-3.123 8.189-3.123 11.314.001zm121.435-52.505h-219.5c-22.056 0-40-17.944-40-40v-150.206c0-22.056 17.944-40 40-40h324c22.056 0 40 17.944 40 40v103.319c0 4.418 3.582 8 8 8s8-3.582 8-8v-103.319c0-30.878-25.121-56-56-56h-324c-30.879 0-56 25.122-56 56v150.207c0 30.878 25.121 56 56 56h219.5c4.418 0 8-3.582 8-8s-3.582-8.001-8-8.001zm-132.749-282.711c1.563 1.562 3.609 2.343 5.657 2.343 7.063 0 10.712-8.602 5.657-13.657l-9.899-9.899c-3.125-3.124-8.189-3.124-11.314 0-3.124 3.124-3.124 8.189 0 11.313zm75.249-15.358c4.418 0 8-3.582 8-8v-14c0-4.418-3.582-8-8-8s-8 3.582-8 8v14c0 4.419 3.582 8 8 8zm75.249 15.358 9.899-9.899c3.124-3.124 3.124-8.189 0-11.313-3.125-3.124-8.189-3.124-11.314 0l-9.899 9.899c-3.124 3.124-3.124 8.189 0 11.313 3.125 3.125 8.189 3.124 11.314 0zm-75.249 350.574c-4.418 0-8 3.582-8 8v14c0 4.418 3.582 8 8 8s8-3.582 8-8v-14c0-4.419-3.582-8-8-8zm259.146 25.421-53.633-45.068 22.245-22.245c4.28-4.281 2.426-11.587-3.363-13.321l-125.102-37.451c-6.093-1.824-11.781 3.872-9.958 9.958l37.451 125.101c1.731 5.783 9.036 7.645 13.321 3.362l28.414-28.414c3.124-3.124 3.124-8.189 0-11.313-3.125-3.124-8.189-3.124-11.314 0l-18.937 18.937-29.353-98.048 98.049 29.353-18.938 18.937c-3.314 3.314-3.08 8.765.511 11.781l53.633 45.068-28.115 28.116-15.532-18.484c-2.843-3.383-7.889-3.82-11.271-.979-3.383 2.843-3.82 7.889-.979 11.271l21.145 25.164c3.018 3.591 8.466 3.825 11.782.51l40.454-40.454c3.316-3.315 3.081-8.765-.51-11.781zm-333.064-208.387c7.077 6.079 11.573 15.083 11.573 25.123 0 4.418-3.582 8-8 8s-8-3.582-8-8c0-9.442-7.682-17.123-17.123-17.123h-27.173v34.246h27.173c4.418 0 8 3.582 8 8s-3.582 8-8 8h-35.173c-4.418 0-8-3.582-8-8 0-10.623 0-89.839 0-100.493 0-4.418 3.582-8 8-8h35.173c30.522.001 44.884 38.203 21.55 58.247zm-4.427-25.123c0-9.442-7.682-17.123-17.123-17.123h-27.173v34.246h27.173c9.442 0 17.123-7.681 17.123-17.123zm48.198-33.123c-4.418 0-8 3.582-8 8v70.345c0 21.035 17.113 38.148 38.147 38.148s38.147-17.113 38.147-38.148v-70.345c0-4.418-3.582-8-8-8s-8 3.582-8 8v70.345c0 12.212-9.936 22.148-22.147 22.148s-22.147-9.936-22.147-22.148v-70.345c0-4.419-3.582-8-8-8zm240.147 115.212c-4.418 0-8 3.582-8 8v10.138c0 4.418 3.582 8 8 8s8-3.582 8-8v-10.138c0-4.419-3.582-8-8-8zm-109.508 1.266c4.418 0 8-3.582 8-8v-48.015l29.009-48.347c2.272-3.789 1.044-8.703-2.744-10.976-3.792-2.275-8.703-1.044-10.977 2.744l-23.288 38.813-23.287-38.813c-2.272-3.789-7.186-5.017-10.977-2.744-3.788 2.273-5.017 7.187-2.744 10.976l29.008 48.347v48.016c0 4.418 3.582 7.999 8 7.999z"/></svg>