<svg id="icons" enable-background="new 0 0 64 64" height="512" viewBox="0 0 64 64" width="512" xmlns="http://www.w3.org/2000/svg"><path d="m35.708 54.712 1.707-1.707h3.585c2.757 0 5 2.242 5 4.998v4.997c0 .553.447 1 1 1s1-.447 1-1v-4.998c0-3.858-3.141-6.998-7-6.998h-3v-1.623c3.58-2.079 5.999-5.945 6-10.374 0-.001 0-.001 0-.001v-9.002c0-2.967-2.167-5.432-5-5.91v-3.09c0-.553-.447-1-1-1h-8c-5.514 0-10 4.486-10 10v9c0 4.431 2.419 8.298 6 10.377v1.623h-3c-3.859 0-7 3.14-7 6.998v4.998c0 .553.447 1 1 1s1-.447 1-1v-4.998c0-2.756 2.243-4.998 5-4.998h3.586l1.707 1.707c.061.063.243.237.537.286.222.037.401-.014.487-.045l2.683-.894 2.684.895c.101.028.348.083.634-.011.188-.062.317-.163.39-.23zm3.817-23.588c-.035.02-3.539 1.881-7.526 1.881-3.968 0-7.492-1.862-7.527-1.881-.082-.043-.295-.141-.577-.112-.332.035-.542.224-.604.285l-1.291 1.293v-2.586c0-4.411 3.589-8 8-8h7v3c0 .553.447 1 1 1 2.206 0 4 1.794 4 4v2.586l-1.293-1.293c-.058-.065-.22-.227-.484-.288-.356-.082-.637.078-.698.115zm-17.525 7.88v-3.586l2.204-2.204c1.309.596 4.355 1.79 7.796 1.79s6.487-1.194 7.796-1.79l2.204 2.204v3.586c0 5.514-4.486 10-10 10s-10-4.486-10-10zm9.684 13.052-2.413.805-1.271-1.271v-1.286c1.254.445 2.596.7 4 .7s2.746-.255 4-.7v1.286l-1.271 1.271-2.413-.805c-.064-.026-.168-.059-.3-.061-.148-.003-.265.034-.332.061z"/><path d="m32.03 57.004h-.01c-.552 0-.994.447-.994 1s.452 1 1.005 1c.552 0 1-.447 1-1s-.449-1-1.001-1z"/><path d="m32.03 61.008h-.01c-.552 0-.994.447-.994 1s.452 1 1.005 1c.552 0 1-.447 1-1s-.449-1-1.001-1z"/><path d="m56 25.002c-3.52 0-6.433 2.615-6.92 6.002h-2.08c-.553 0-1 .447-1 1s.447 1 1 1h2.081c.488 3.387 3.401 6 6.92 6h.001c3.857-.002 6.997-3.144 6.998-7.002 0-3.859-3.141-7-7-7zm.001 12.002c-2.757 0-5-2.244-5-5.002 0-2.757 2.242-5 4.999-5s5 2.243 5 5c-.001 2.756-2.243 5-4.999 5.002z"/><path d="m58.002 31.004h-1.002v-1.002c0-.553-.448-1-1-1-.553 0-1 .448-1 1v1.002h-1.002c-.553 0-1 .447-1 1s.447 1 1 1h1.003v1.002c0 .553.448 1 1 1 .553 0 1-.448 1-1v-1.002h1.001c.553 0 1-.447 1-1s-.447-1-1-1z"/><path d="m1 32.002c0 3.861 3.141 7.002 7 7.002h.001c3.517-.002 6.429-2.615 6.918-6h2.081c.553 0 1-.447 1-1s-.447-1-1-1h-2.08c-.487-3.387-3.401-6.002-6.921-6.002-3.859 0-6.999 3.141-6.999 7zm6.999-5c2.757 0 5 2.243 5 5-.001 2.756-2.243 5-4.999 5.002-2.757 0-5-2.244-5-5.002 0-2.757 2.242-5 4.999-5z"/><path d="m5.997 33.004h1.003v1.002c0 .553.448 1 1 1 .553 0 1-.448 1-1v-1.002h1.001c.553 0 1-.447 1-1s-.447-1-1-1h-1.002v-1.002c0-.553-.448-1-1-1-.553 0-1 .448-1 1v1.002h-1.002c-.553 0-1 .447-1 1s.447 1 1 1z"/><path d="m33.002 9.004v-1.002h1.001c.553 0 1-.447 1-1s-.447-1-1-1h-1.002v-1.002c0-.553-.448-1-1-1-.553 0-1 .448-1 1v1.002h-1.002c-.553 0-1 .447-1 1s.447 1 1 1h1.003v1.002c0 .553.448 1 1 1 .553 0 1-.448 1-1z"/><path d="m47.676 15.326h1.003v1.002c0 .553.448 1 1 1 .553 0 1-.448 1-1v-1.002h1.001c.553 0 1-.447 1-1s-.447-1-1-1h-1.002v-1.002c0-.553-.448-1-1-1-.553 0-1 .448-1 1v1.002h-1.002c-.553 0-1 .447-1 1s.447 1 1 1z"/><path d="m14.323 7.324c-3.859 0-6.999 3.141-6.999 7 0 3.861 3.141 7.002 7 7.002h.001c1.569-.001 3.015-.527 4.183-1.404l1.473 1.473c.195.195.451.293.707.293s.512-.098.707-.293c.391-.391.391-1.023 0-1.414l-1.473-1.473c.875-1.169 1.4-2.614 1.401-4.184 0-3.859-3.14-7-7-7zm.001 12.002c-2.757 0-5-2.244-5-5.002 0-2.757 2.242-5 4.999-5s5 2.243 5 5c-.001 2.756-2.243 5-4.999 5.002z"/><path d="m16.325 13.326h-1.002v-1.002c0-.553-.448-1-1-1-.553 0-1 .448-1 1v1.002h-1.002c-.553 0-1 .447-1 1s.447 1 1 1h1.003v1.002c0 .553.448 1 1 1 .553 0 1-.448 1-1v-1.002h1.001c.553 0 1-.447 1-1s-.447-1-1-1z"/><path d="m42.607 21.396c.195.195.451.293.707.293s.512-.098.707-.293l1.473-1.473c1.169.877 2.615 1.402 4.185 1.402h.001c3.857-.002 6.997-3.144 6.998-7.002 0-3.859-3.141-7-7-7s-6.999 3.141-6.999 7c0 1.57.525 3.017 1.401 4.186l-1.473 1.473c-.39.391-.39 1.024 0 1.414zm7.071-12.072c2.757 0 5 2.243 5 5-.001 2.756-2.243 5-4.999 5.002-2.757 0-5-2.244-5-5.002 0-2.757 2.242-5 4.999-5z"/><path d="m32.002 17.002c.553 0 1-.447 1-1v-2.08c3.385-.489 5.998-3.403 5.999-6.922 0-3.859-3.141-7-7-7s-6.999 3.141-6.999 7c0 3.521 2.613 6.434 6 6.922v2.08c0 .553.447 1 1 1zm-5-10.002c0-2.757 2.242-5 4.999-5s5 2.243 5 5c-.001 2.756-2.243 5-4.999 5.002-2.757 0-5-2.244-5-5.002z"/></svg>