<?xml version="1.0" encoding="iso-8859-1"?>
<!-- Generator: Adobe Illustrator 19.0.0, SVG Export Plug-In . SVG Version: 6.00 Build 0)  -->
<svg version="1.1" id="Layer_1" xmlns="http://www.w3.org/2000/svg" xmlns:xlink="http://www.w3.org/1999/xlink" x="0px" y="0px"
	 viewBox="0 0 512 512" style="enable-background:new 0 0 512 512;" xml:space="preserve">
<g>
	<g>
		<path d="M256,52.966C144.047,52.966,52.966,144.047,52.966,256S144.047,459.034,256,459.034S459.034,367.953,459.034,256
			S367.953,52.966,256,52.966z M256,441.379c-102.218,0-185.379-83.162-185.379-185.379S153.782,70.621,256,70.621
			S441.379,153.782,441.379,256S358.218,441.379,256,441.379z"/>
	</g>
</g>
<g>
	<g>
		<path d="M256,0C114.841,0,0,114.841,0,256s114.841,256,256,256s256-114.841,256-256S397.159,0,256,0z M256,494.345
			c-131.425,0-238.345-106.92-238.345-238.345S124.575,17.655,256,17.655S494.345,124.575,494.345,256S387.425,494.345,256,494.345z
			"/>
	</g>
</g>
<g>
	<g>
		<path d="M197.702,247.848v11.167h0.001c0,1.083,0.388,1.997,1.168,2.741c0.779,0.744,1.81,1.117,3.096,1.117h22.537v32.079
			c-2.571,1.353-5.144,2.555-7.716,3.604c-2.571,1.049-5.312,1.946-8.222,2.69c-2.911,0.744-6.008,1.303-9.289,1.675
			c-3.282,0.372-6.886,0.558-10.812,0.558c-7.85,0-15.024-1.32-21.522-3.959s-12.114-6.463-16.852-11.471
			s-8.408-11.116-11.015-18.324c-2.607-7.208-3.908-15.414-3.908-24.618c0-8.798,1.251-16.733,3.756-23.806
			c2.505-7.072,6.091-13.096,10.761-18.07c4.67-4.974,10.322-8.798,16.954-11.471c6.632-2.673,14.042-4.01,22.232-4.01
			c5.616,0,10.474,0.44,14.568,1.32c4.094,0.88,7.646,1.946,10.659,3.198c3.012,1.252,5.566,2.555,7.665,3.908
			c2.099,1.354,3.992,2.504,5.685,3.452c1.287,0.744,2.469,1.117,3.553,1.117c1.827,0,3.317-0.914,4.467-2.741l5.583-8.934
			c-3.114-2.842-6.464-5.397-10.05-7.665c-3.586-2.267-7.495-4.196-11.726-5.786c-4.231-1.591-8.814-2.809-13.755-3.655
			c-4.941-0.846-10.286-1.269-16.04-1.269c-11.37,0-21.641,1.794-30.81,5.38c-9.17,3.587-16.986,8.646-23.45,15.177
			c-6.464,6.531-11.439,14.365-14.923,23.501c-3.485,9.137-5.228,19.254-5.228,30.354c0,10.964,1.777,21.014,5.33,30.151
			c3.553,9.137,8.51,16.97,14.872,23.501c6.362,6.531,13.941,11.607,22.74,15.228c8.799,3.621,18.476,5.431,29.034,5.431
			c6.023,0,11.606-0.322,16.751-0.964c5.144-0.643,9.967-1.624,14.466-2.944c4.5-1.32,8.731-2.961,12.69-4.924
			c3.96-1.963,7.766-4.264,11.421-6.903v-55.834H197.702z"/>
	</g>
</g>
<g>
	<g>
		<path d="M402.565,215.108c-3.452-9.103-8.325-16.953-14.618-23.552c-6.294-6.599-13.857-11.725-22.689-15.38
			c-8.832-3.654-18.595-5.482-29.288-5.482c-10.692,0-20.438,1.827-29.237,5.482c-8.799,3.655-16.344,8.781-22.639,15.38
			c-6.294,6.599-11.167,14.449-14.619,23.552c-3.451,9.103-5.177,19.102-5.177,29.998c0,10.896,1.726,20.896,5.177,29.998
			c3.451,9.103,8.324,16.936,14.619,23.501c6.294,6.565,13.839,11.658,22.639,15.278s18.545,5.431,29.237,5.431
			c10.692,0,20.455-1.81,29.288-5.431c8.832-3.621,16.395-8.714,22.689-15.278c6.294-6.565,11.166-14.398,14.618-23.501
			c3.452-9.103,5.177-19.102,5.177-29.998C407.742,234.21,406.016,224.211,402.565,215.108z M383.885,269.116
			c-2.436,7.072-5.888,13.062-10.355,17.969c-4.467,4.907-9.88,8.663-16.243,11.268c-6.363,2.606-13.469,3.908-21.318,3.908
			c-7.784,0-14.855-1.303-21.217-3.908c-6.363-2.606-11.794-6.362-16.294-11.268c-4.5-4.907-7.969-10.896-10.406-17.969
			s-3.655-15.075-3.655-24.009c0-8.934,1.218-16.953,3.655-24.06s5.906-13.113,10.406-18.019c4.5-4.907,9.931-8.68,16.294-11.319
			c6.362-2.639,13.433-3.959,21.217-3.959c7.85,0,14.956,1.32,21.318,3.959c6.362,2.639,11.776,6.413,16.243,11.319
			c4.467,4.907,7.918,10.913,10.355,18.019c2.436,7.106,3.655,15.126,3.655,24.06C387.54,254.04,386.322,262.043,383.885,269.116z"
			/>
	</g>
</g>
<g>
</g>
<g>
</g>
<g>
</g>
<g>
</g>
<g>
</g>
<g>
</g>
<g>
</g>
<g>
</g>
<g>
</g>
<g>
</g>
<g>
</g>
<g>
</g>
<g>
</g>
<g>
</g>
<g>
</g>
</svg>
