<?xml version="1.0" encoding="iso-8859-1"?>
<!-- Generator: Adobe Illustrator 16.0.0, SVG Export Plug-In . SVG Version: 6.00 Build 0)  -->
<!DOCTYPE svg PUBLIC "-//W3C//DTD SVG 1.1//EN" "http://www.w3.org/Graphics/SVG/1.1/DTD/svg11.dtd">
<svg version="1.1" id="Capa_1" xmlns="http://www.w3.org/2000/svg" xmlns:xlink="http://www.w3.org/1999/xlink" x="0px" y="0px"
	 width="541.131px" height="541.131px" viewBox="0 0 541.131 541.131" style="enable-background:new 0 0 541.131 541.131;"
	 xml:space="preserve">
<g>
	<g>
		<path d="M135.222,385.938c2.802,8.252,9.687,13.895,17.624,15.615l0.019,0.191h0.784c1.377,0.248,2.783,0.41,4.208,0.41
			c1.396,0,2.812-0.152,4.227-0.41h56.916c10.557,0,19.775-8.539,20.579-19.068l7.344-96.275l55.797-81.367l28.133-26.259
			l93.301,97.155c5.642,5.861,13.158,8.816,20.693,8.816c7.153,0,14.306-2.658,19.871-8.004
			c11.427-10.968,11.79-29.127,0.822-40.564l-9.792-10.193c4.676-10.366,2.936-22.95-5.422-31.662L337.44,76.762
			c-10.862-11.293-28.812-11.8-40.268-1.1l-69.825,65.178c-3.223,3.003-5.499,6.598-7.019,10.442L147.061,272.41l-16.725-49.131
			c-1.989-5.862-6.187-10.729-11.704-13.56l-83.796-43.051c-11.733-6.034-26.153-1.405-32.188,10.337
			c-6.034,11.743-1.406,26.153,10.337,32.187l75.199,38.642L135.222,385.938z"/>
		<circle cx="189.91" cy="471.684" r="57.021"/>
		<path d="M510.856,0.271c-5.288,0-9.562,4.284-9.562,9.562v521.463c0,5.287,4.274,9.562,9.562,9.562h20.713
			c5.288,0,9.562-4.275,9.562-9.562V9.834c0-5.278-4.274-9.562-9.562-9.562H510.856z"/>
		<path d="M390.455,30.853c5.116,1.377,10.337-1.683,11.695-6.78c1.367-5.097-1.674-10.337-6.771-11.695
			c-1.884-0.498-189.815-48.845-270.676,84.542c-2.735,4.523-1.291,10.395,3.223,13.129c1.549,0.946,3.261,1.386,4.954,1.386
			c3.232,0,6.388-1.635,8.195-4.609C214.438-14.235,388.705,30.394,390.455,30.853z"/>
		<path d="M235.581,77.278c5.135-1.186,8.357-6.311,7.182-11.456c-1.176-5.145-6.292-8.387-11.418-7.201
			c-1.004,0.22-100.138,23.782-87.765,117.418c0.631,4.81,4.743,8.31,9.467,8.31c0.411,0,0.842-0.029,1.262-0.086
			c5.241-0.688,8.922-5.499,8.224-10.729C152.463,97.321,232.176,78.053,235.581,77.278z"/>
	</g>
</g>
<g>
</g>
<g>
</g>
<g>
</g>
<g>
</g>
<g>
</g>
<g>
</g>
<g>
</g>
<g>
</g>
<g>
</g>
<g>
</g>
<g>
</g>
<g>
</g>
<g>
</g>
<g>
</g>
<g>
</g>
</svg>
