<svg height="512pt" viewBox="0 0 512 512" width="512pt" xmlns="http://www.w3.org/2000/svg"><path d="m512 111.992188-111.992188-111.992188-31.820312 53.003906-50.054688-50.054687-21.214843 21.210937 21.214843 21.214844-287.378906 287.378906c-19.832031 19.832032-30.753906 46.199219-30.753906 74.246094s10.921875 54.414062 30.753906 74.246094c20.46875 20.46875 47.355469 30.703125 74.246094 30.703125s53.777344-10.234375 74.246094-30.703125l287.378906-287.378906 21.214844 21.214843 21.210937-21.214843-50.054687-50.054688zm-106.035156-63.640626 57.683594 57.683594-26.519532 15.910156-47.074218-47.074218zm-31.820313 53.035157 36.46875 36.46875-26.515625 15.910156-25.863281-25.863281zm-216.113281 358.644531c-29.242188 29.246094-76.820312 29.242188-106.0625 0-14.167969-14.164062-21.96875-33-21.96875-53.03125s7.800781-38.867188 21.96875-53.03125l122.308594-122.3125 194.453125 17.675781zm287.378906-287.378906-49.0625 49.066406-194.457031-17.679688 137.453125-137.449218 12.933594 12.929687-31.820313 53.035157 58.988281 58.988281 53.035157-31.820313zm0 0"/><path d="m217 306h30v30h-30zm0 0"/><path d="m134 389h30v30h-30zm0 0"/><path d="m134 306h30v30h-30zm0 0"/></svg>