<svg id="Layer_5" enable-background="new 0 0 64 64" height="512" viewBox="0 0 64 64" width="512" xmlns="http://www.w3.org/2000/svg"><path d="m42 23c4.137 0 8.025-1.611 11-4.585.645-.645 1-1.502 1-2.415s-.355-1.77-1.051-2.464c-2.924-2.925-6.812-4.536-10.949-4.536s-8.025 1.611-11 4.585c-.645.645-1 1.502-1 2.415s.355 1.77 1.051 2.464c2.924 2.925 6.812 4.536 10.949 4.536zm-5-7c0-2.757 2.243-5 5-5s5 2.243 5 5-2.243 5-5 5-5-2.243-5-5zm15 0c0 .378-.146.733-.465 1.05-1.048 1.048-2.244 1.89-3.533 2.533.629-1.049.998-2.273.998-3.583 0-1.307-.367-2.528-.993-3.576 1.299.65 2.509 1.505 3.579 2.576.268.267.414.622.414 1zm-19.535-1.05c1.048-1.048 2.244-1.891 3.533-2.533-.629 1.049-.998 2.272-.998 3.583 0 1.307.367 2.527.993 3.576-1.298-.65-2.508-1.505-3.579-2.576-.268-.267-.414-.622-.414-1s.146-.733.465-1.05z"/><path d="m42 13c-1.654 0-3 1.346-3 3s1.346 3 3 3 3-1.346 3-3-1.346-3-3-3zm0 4c-.552 0-1-.449-1-1s.448-1 1-1 1 .449 1 1-.448 1-1 1z"/><path d="m45 5h2v2h-2z"/><path d="m41 5h2v2h-2z"/><path d="m37 5h2v2h-2z"/><path d="m57.998 25h-29.583c-.889-2.956-2.738-5.575-5.284-7.395l2.349-2.819-3.32-2.213c.54-1.077.852-2.287.852-3.572h1.988v-2.001h-2.251c-.892-3.445-4.017-6-7.737-6s-6.844 2.555-7.736 6h-2.276v2h2.013c0 1.279.31 2.486.846 3.559l-3.339 2.226 2.351 2.822c-3.694 2.628-5.871 6.814-5.871 11.399v7.994c0 2.206 1.794 4 4 4h1.006l.007 16h1.99l.01 2c0 2.206 1.794 4 4 4 1.201 0 2.266-.542 3-1.382.734.84 1.799 1.382 3 1.382 2.206 0 4-1.794 4-4.005l-.011-1.995h2.01l-.001-2.415c.623.27 1.301.415 1.99.415h6.999v2c-2.757 0-5 2.243-5 5v1h28v-1c0-2.757-2.243-5-5-5v-2h6.998c2.758 0 5.002-2.244 5.002-5.002v-19.996c0-2.758-2.244-5.002-5.002-5.002zm0 2c1.655 0 3.002 1.347 3.002 3.002v18.998h-36.991l-.003-8h1.007c.343 0 .67-.057.987-.138v6.138h16v-18h-12.987c0-.674-.054-1.342-.15-2zm-17.998 4v14h-12v-5.367c.622-.705 1.013-1.621 1.013-2.633v-6zm-17.48-15.785-5.226 6.271 2.749.917-4.911 4.365 3.556-10.669c.901-.469 1.7-1.103 2.361-1.864zm-7.52 5.623-1.32-3.958c.434.073.877.12 1.332.12.445 0 .88-.046 1.306-.116zm.013-17.838c2.607 0 4.824 1.673 5.65 4h-11.3c.826-2.327 3.043-4 5.65-4zm6 6c0 3.309-2.691 6-6 6s-6-2.691-6-6zm-12.046 5.224c.655.757 1.447 1.391 2.34 1.86l3.561 10.684-4.911-4.366 2.749-.917-5.226-6.27zm-3.967 24.776c-1.103 0-2-.897-2-2v-7.994c0-3.981 1.93-7.594 5.169-9.841l1.125 1.35-3.251 1.083 7.452 6.624-1.495 1.329v25.449h-3.987l-.013-29h-2l.005 13zm7.013 22c-1.103 0-2-.897-2-2.005l-.011-1.995h4.01v2c.001 1.103-.897 2-1.999 2zm8-2c0 1.103-.897 2-2 2s-2-.897-2-2v-2h3.99zm-6.013-4v-24.551l9.957-8.851-3.251-1.083 1.128-1.354c3.206 2.232 5.178 5.912 5.178 9.846v7.993c0 1.103-.897 2-2 2h-1.007l-.005-13h-2l.013 29zm39.829 6h-23.658c.413-1.164 1.525-2 2.829-2h18c1.304 0 2.416.836 2.829 2zm-4.829-4h-14v-2h14zm8.998-4h-31.996c-.749 0-1.442-.282-1.991-.776v-1.224h36.805c-.416 1.162-1.516 2-2.818 2z"/><path d="m44 29h15v2h-15z"/><path d="m48 33h11v2h-11z"/><path d="m44 33h2v2h-2z"/><path d="m44 37h15v2h-15z"/><path d="m57 41h2v2h-2z"/><path d="m44 41h11v2h-11z"/></svg>