<svg id="Capa_1" enable-background="new 0 0 512 512" height="512" viewBox="0 0 512 512" width="512" xmlns="http://www.w3.org/2000/svg"><g><path d="m90 441.32 60.916-96.984 60.084 96.936v70.728h90v-70.728l60.084-96.936 60.916 96.984v70.68h90v-90h-66.708l-57.157-91h47.865v-150h-47.865l57.157-91h66.708v-90h-90v70.68l-60.916 96.984-60.084-96.936v-70.728h-90v70.728l-60.084 96.936-60.916-96.984v-70.68h-90v90h66.708l57.157 91h-47.865v150h47.865l-57.157 91h-66.708v90h90zm196-260.32v60h-60v-60h-48.055l56.405-91h43.299l56.405 91zm-60 150v-60h60v60h48.055l-56.405 91h-43.3l-56.405-91zm45 151h-30v-30h30zm181-30h30v30h-30zm-46-151h-90v-90h90zm46-271h30v30h-30zm-211 0h30v30h-30zm-181 30h-30v-30h30zm46 151h90v90h-90zm-46 271h-30v-30h30z"/><path d="m346 241h30v30h-30z"/><path d="m136 241h30v30h-30z"/></g></svg>