<svg id="Capa_1" enable-background="new 0 0 511.279 511.279" height="512" viewBox="0 0 511.279 511.279" width="512" xmlns="http://www.w3.org/2000/svg"><g><path d="m477.633 74.371h-73.14c-4.142 0-7.5 3.358-7.5 7.5s3.358 7.5 7.5 7.5h73.14c10.021 0 18.174 8.153 18.174 18.174v264.811h-480.335v-264.811c0-10.021 8.153-18.174 18.174-18.174h72.14c4.142 0 7.5-3.358 7.5-7.5s-3.358-7.5-7.5-7.5h-72.14c-18.292 0-33.174 14.882-33.174 33.174v288.962c0 18.292 14.882 33.174 33.174 33.174h125.927v33.769l-20.374 28.412c-2.693 3.755-3.055 8.642-.944 12.753s6.292 6.665 10.914 6.665h211.94c4.621 0 8.803-2.554 10.914-6.665s1.749-8.998-.944-12.753l-19.471-27.153c-.143-.926-.453-1.796-.902-2.578v-32.449h126.927c18.292 0 33.174-14.882 33.174-33.174v-288.963c-.001-18.292-14.882-33.174-33.174-33.174zm0 340.31h-167.244c-4.142 0-7.5 3.358-7.5 7.5s3.358 7.5 7.5 7.5h25.316v28.68h-13.229c-4.142 0-7.5 3.358-7.5 7.5s3.358 7.5 7.5 7.5h16.878l16.434 22.918h-201.3l16.434-22.918h17.878c4.142 0 7.5-3.358 7.5-7.5s-3.358-7.5-7.5-7.5h-14.229v-28.68h103.854c4.142 0 7.5-3.358 7.5-7.5s-3.358-7.5-7.5-7.5h-244.779c-10.021 0-18.174-8.153-18.174-18.174v-9.151h480.334v9.151c0 10.021-8.152 18.174-18.173 18.174z"/><path d="m242.449 218.806c3.089 3.9 7.715 6.137 12.69 6.137s9.601-2.236 12.689-6.137l65.26-82.387c2.572-3.247 2.025-7.964-1.222-10.536-3.247-2.573-7.964-2.025-10.536 1.222l-57.013 71.975 36.717-126.045h63.126l-22.896 28.905c-2.572 3.247-2.025 7.964 1.222 10.536 3.246 2.572 7.964 2.026 10.536-1.222l31.08-39.235c2.568-3.244 2.687-7.863.285-11.237l-39.106-54.886c-2.632-3.692-6.909-5.896-11.442-5.896h-157.399c-4.533 0-8.81 2.204-11.441 5.897l-39.109 54.888c-2.401 3.373-2.282 7.993.288 11.235zm42.963-145.77-31.692 108.793-31.691-108.793zm-58.758-15 27.066-37.681 27.066 37.681zm41.688-43.036h52.139l-25.673 36.844zm-55.709 36.844-25.673-36.844h52.139zm-6.227 21.192 35.067 120.378-95.355-120.378zm157.606-15h-55.237l27.311-39.194zm-191.254-37.181 25.908 37.181h-52.399z"/><path d="m151.784 273.529h286.979c11.81 0 21.417-9.607 21.417-21.417v-63.783c0-11.81-9.607-21.417-21.417-21.417h-107.065c-4.142 0-7.5 3.358-7.5 7.5s3.358 7.5 7.5 7.5h107.064c3.539 0 6.417 2.878 6.417 6.417v63.783c0 3.539-2.878 6.417-6.417 6.417h-286.978c-4.142 0-7.5 3.358-7.5 7.5s3.358 7.5 7.5 7.5z"/><path d="m72.516 181.912h106.064c4.142 0 7.5-3.358 7.5-7.5s-3.358-7.5-7.5-7.5h-106.064c-11.81 0-21.417 9.607-21.417 21.417v63.783c0 11.81 9.607 21.417 21.417 21.417h47.305c4.142 0 7.5-3.358 7.5-7.5s-3.358-7.5-7.5-7.5h-47.305c-3.539 0-6.417-2.878-6.417-6.417v-63.783c0-3.539 2.878-6.417 6.417-6.417z"/></g></svg>