<?xml version="1.0" encoding="iso-8859-1"?>
<!-- Generator: Adobe Illustrator 19.0.0, SVG Export Plug-In . SVG Version: 6.00 Build 0)  -->
<svg version="1.1" id="Capa_1" xmlns="http://www.w3.org/2000/svg" xmlns:xlink="http://www.w3.org/1999/xlink" x="0px" y="0px"
	 viewBox="0 0 512 512" style="enable-background:new 0 0 512 512;" xml:space="preserve">
<g>
	<g>
		<path d="M446.499,276.2c-5.537-6.727-12.217-13.466-18.737-20.2c6.52-6.735,13.2-13.473,18.737-20.2
			c31.957-38.84,43.486-73.878,32.488-101.807c1.26-4.142,2.141-8.445,2.141-12.993c0-24.814-20.186-45-45-45
			c-16.531,0-30.85,9.058-38.674,22.375c-16.765,0.756-35.339,3.602-55.353,8.655C324.739,45.544,295.787,0,256.128,0
			c-39.575,0-68.492,45.352-85.865,106.635c-20.092-5.094-38.73-7.866-55.534-8.394C106.889,84.996,92.605,76,76.128,76
			c-24.814,0-45,20.186-45,45c0,4.374,0.822,8.518,1.992,12.519c-11.517,26.305-0.297,62.254,32.637,102.281
			c5.537,6.727,12.217,13.466,18.737,20.2c-6.52,6.735-13.2,13.473-18.737,20.2c-35.024,42.568-45.835,80.669-30.469,107.3
			c12.422,21.519,37.866,30.703,70.371,30.703c19.367,0,41.345-3.472,64.468-9.335C187.485,466.408,216.449,512,256.128,512
			c39.653,0,68.604-45.531,85.966-107.005c19.904,5.004,38.491,7.875,55.364,8.635c7.824,13.315,22.141,22.37,38.67,22.37
			c24.814,0,45-20.186,45-45c0-4.374-0.822-8.518-1.992-12.519C490.653,352.176,479.432,316.227,446.499,276.2z M61.274,368.5
			c-8.423-14.575,1.919-41.953,27.642-73.242c5.074-6.165,11.245-12.36,17.238-18.549c14.544,13.024,30.436,25.794,47.834,38.112
			c1.974,20.978,4.98,41.49,9.034,60.932C110.471,388.999,71.517,386.265,61.274,368.5z M151.492,275.722
			c-8.366-6.5-16.046-13.076-23.547-19.722c7.502-6.647,15.181-13.222,23.547-19.722c-0.207,6.581-0.364,13.165-0.364,19.722
			S151.285,269.141,151.492,275.722z M153.988,197.179c-17.399,12.318-33.29,25.087-47.834,38.112
			c-5.993-6.189-12.164-12.383-17.238-18.549c-16.827-20.469-26.922-39.186-29.502-54.04c5.178,2.084,10.8,3.298,16.714,3.298
			c22.169,0,40.532-16.146,44.22-37.275c13.079,1.099,27.407,3.629,42.68,7.496C158.972,155.673,155.964,176.192,153.988,197.179z
			 M325.647,175.745c-16.234-10.049-7.621-5.759-34.466-20.219c9.886-4.019,19.658-7.718,29.205-10.915
			C322.414,154.484,324.144,164.929,325.647,175.745z M256.128,30c20.475,0,42.303,33.307,57.111,85.351
			c-18.448,6.066-37.61,13.689-56.975,22.57c-19.424-8.994-38.65-16.754-57.155-22.903C213.916,63.166,235.697,30,256.128,30z
			 M191.869,144.61c9.556,3.199,19.34,6.907,29.236,10.928c-26.613,14.279-18.453,10.276-34.497,20.208
			C188.111,164.927,189.842,154.483,191.869,144.61z M186.608,336.255c16.093,9.959,7.888,5.923,34.464,20.208
			c-9.987,4.047-19.772,7.722-29.216,10.865C189.833,357.473,188.108,347.049,186.608,336.255z M256.128,482
			c-20.493,0-42.339-33.371-57.149-85.5c18.807-6.191,38.02-13.7,57.116-22.443c19.431,8.937,38.621,16.549,57.133,22.63
			C298.418,448.708,276.597,482,256.128,482z M320.387,367.39c-9.549-3.195-19.325-6.899-29.213-10.917
			c25.825-13.839,19.327-10.845,34.473-20.219C324.144,347.073,322.414,357.517,320.387,367.39z M329.601,298.404
			c-24.443,16.423-46.436,29.231-73.343,42.367c-26.633-12.975-47.109-24.565-73.603-42.367
			c-0.956-13.676-1.527-27.797-1.527-42.404s0.571-28.727,1.527-42.404c26.677-17.926,47.078-29.432,73.475-42.303
			c26.42,12.883,46.826,24.397,73.471,42.303c0.956,13.676,1.527,27.797,1.527,42.404S330.556,284.727,329.601,298.404z
			 M391.908,128.725c3.688,21.129,22.051,37.275,44.22,37.275c5.98,0,11.666-1.225,16.89-3.351
			c-2.633,14.672-12.739,33.488-29.678,54.093c-5.074,6.165-11.245,12.36-17.238,18.549c-14.544-13.024-30.436-25.794-47.834-38.112
			c-1.976-20.988-4.984-41.505-9.04-60.956C364.501,132.356,378.829,129.824,391.908,128.725z M360.763,236.278
			c8.366,6.5,16.046,13.076,23.547,19.722c-7.502,6.647-15.181,13.222-23.547,19.722c0.207-6.581,0.364-13.165,0.364-19.722
			C361.127,249.443,360.97,242.859,360.763,236.278z M436.128,346c-22.169,0-40.532,16.146-44.22,37.275
			c-13.079-1.099-27.407-3.629-42.68-7.496c4.056-19.451,7.064-39.97,9.04-60.958c17.399-12.318,33.29-25.087,47.834-38.112
			c5.993,6.189,12.164,12.383,17.238,18.549c16.827,20.469,26.922,39.186,29.502,54.04C447.663,347.214,442.042,346,436.128,346z"/>
	</g>
</g>
<g>
	<g>
		<path d="M256.128,211c-24.814,0-45,20.186-45,45c0,24.814,20.186,45,45,45c24.814,0,45-20.186,45-45
			C301.128,231.186,280.942,211,256.128,211z"/>
	</g>
</g>
<g>
</g>
<g>
</g>
<g>
</g>
<g>
</g>
<g>
</g>
<g>
</g>
<g>
</g>
<g>
</g>
<g>
</g>
<g>
</g>
<g>
</g>
<g>
</g>
<g>
</g>
<g>
</g>
<g>
</g>
</svg>
