<svg id="bold" enable-background="new 0 0 24 24" height="512" viewBox="0 0 24 24" width="512" xmlns="http://www.w3.org/2000/svg"><path d="m21.35 7.37-1.35 1.3-2.81 2.71c-.25.24-.57.37-.91.37-.07 0-.14-.01-.22-.02-.41-.07-.75-.32-.94-.68-.4-.76-.31-1.66.22-2.34l2.04-2.63c-.43-.55-.66-1.22-.66-1.93 0-.05 0-.1.01-.15.03-.8.37-1.55.96-2.11.2-.2.51-.19.71.01.19.2.18.51-.02.71-.39.38-.62.87-.65 1.39-.01.05-.01.1-.01.15 0 .58.23 1.13.66 1.55.19.17.21.46.05.66l-2.3 2.96c-.29.37-.34.86-.12 1.27.06.11.17.14.21.15.05.01.17.02.27-.08l3.51-3.38.65-.63c.2-.19.52-.19.71.01s.19.52-.01.71z"/><path d="m19.9 12c-.126 0-.252-.047-.35-.143-.197-.193-.201-.51-.008-.707l1.88-1.92c1.018-1.036 1.578-2.403 1.578-3.85v-4.38h-7v.88c0 .176-.092.339-.243.429-.758.454-1.24 1.296-1.257 2.2-.005.276-.231.47-.509.491-.276-.005-.496-.233-.491-.509.021-1.147.589-2.225 1.5-2.88v-1.111c0-.276.224-.5.5-.5h8c.276 0 .5.224.5.5v4.88c0 1.711-.662 3.327-1.863 4.551l-1.879 1.919c-.099.1-.228.15-.358.15z"/><path d="m8.66 15.29-2.04 2.63c.43.55.66 1.22.66 1.93 0 .05 0 .09-.01.14-.03.81-.36 1.55-.96 2.12-.1.1-.22.14-.35.14s-.26-.05-.36-.15c-.19-.2-.18-.51.02-.71.4-.38.62-.87.65-1.4.01-.05.01-.09.01-.14 0-.58-.23-1.13-.66-1.55-.19-.17-.21-.46-.05-.66l2.3-2.96c.29-.37.34-.86.12-1.27-.06-.11-.17-.14-.21-.15-.05-.01-.17-.02-.27.08l-3.51 3.38-.65.63c-.2.19-.52.19-.71-.01s-.19-.52.01-.71l1.35-1.3 2.81-2.71c.3-.29.71-.42 1.13-.35.41.07.75.32.94.68.4.76.31 1.66-.22 2.34z"/><path d="m8.5 24h-8c-.276 0-.5-.224-.5-.5v-4.88c0-1.711.662-3.327 1.863-4.551l1.879-1.919c.195-.197.51-.2.707-.008.197.193.201.51.008.707l-1.88 1.92c-1.017 1.037-1.577 2.404-1.577 3.851v4.38h7v-.88c0-.176.092-.339.243-.429.758-.454 1.24-1.296 1.257-2.2.005-.277.233-.491.509-.491.276.005.496.233.491.509-.021 1.147-.589 2.225-1.5 2.88v1.111c0 .276-.224.5-.5.5z"/><path d="m16.49 10.66c-.1.1-.22.09-.27.08-.04-.01-.15-.04-.21-.15-.22-.41-.17-.9.12-1.27l2.3-2.96c.16-.2.14-.49-.05-.66-.43-.42-.66-.97-.66-1.55 0-.05 0-.1.01-.15h-13.23c-.28 0-.5.22-.5.5v12.22l3.51-3.38c.1-.1.22-.09.27-.08.04.01.15.04.21.15.22.41.17.9-.12 1.27l-2.3 2.96c-.16.2-.14.49.05.66.43.42.66.97.66 1.55 0 .05 0 .09-.01.14h1l12.23.01c.13 0 .26-.05.35-.15.1-.09.15-.22.15-.35v-12.22z"/></svg>