<svg id="Capa_1" enable-background="new 0 0 512 512" height="512" viewBox="0 0 512 512" width="512" xmlns="http://www.w3.org/2000/svg"><g><path d="m139.38 108.423 21.213 21.213c25.529-25.528 59.413-39.588 95.407-39.588 35.996 0 69.88 14.06 95.41 39.59l21.213-21.213c-31.196-31.196-72.613-48.377-116.623-48.377-44.008 0-85.424 17.18-116.62 48.375z"/><path d="m256 30c52.099 0 101.079 20.288 137.92 57.128l21.213-21.213c-42.507-42.506-99.022-65.915-159.133-65.915-60.113 0-116.629 23.41-159.135 65.917l21.213 21.213c36.84-36.841 85.821-57.13 137.922-57.13z"/><path d="m371.222 178.127c-29.342-23.727-70.262-36.794-115.222-36.794s-85.88 13.067-115.222 36.794c-32.31 26.127-49.388 63.159-49.388 107.092 0 40.291 22.622 94.803 60.513 145.82 29.07 39.139 71.682 80.961 104.097 80.961s75.027-41.822 104.097-80.961c37.891-51.018 60.513-105.529 60.513-145.82-.001-43.933-17.079-80.965-49.388-107.092zm-115.222-6.794c38.116 0 72.337 10.697 96.358 30.121 2.039 1.649 3.992 3.362 5.874 5.125l-19.042 24.984-39.464-17.116-43.726 38.555-43.725-38.555-39.465 17.117-19.042-24.986c1.881-1.763 3.834-3.476 5.873-5.125 24.022-19.423 58.243-30.12 96.359-30.12zm80.013 241.818c-33.214 44.719-66.014 68.849-80.013 68.849s-46.799-24.13-80.013-68.849c-33.677-45.343-54.597-94.363-54.597-127.933 0-20.195 4.523-38.474 13.27-54.222l28.534 37.439 43.535-18.883 49.271 43.445 49.272-43.445 43.536 18.884 28.532-37.437c8.745 15.747 13.268 34.026 13.268 54.219.001 33.57-20.919 82.591-54.595 127.933z"/><path d="m240.988 401.936h30.023v30h-30.023z"/><path d="m281.02 341.888h30.024v30h-30.024z"/><path d="m200.956 341.888h30.024v30h-30.024z"/></g></svg>