<?xml version="1.0"?>
<svg xmlns="http://www.w3.org/2000/svg" id="Out_line" data-name="Out line" viewBox="0 0 512 512" width="512" height="512"><path d="M448.669,309.85156l15.4121,4.29883A216.09347,216.09347,0,0,0,404.66113,99.42871c-3.19433-3.1084-6.543-6.11816-9.91211-8.91211A216.15362,216.15362,0,0,0,222.77539,42.54883l2.44922,15.81055a201.3541,201.3541,0,0,1,24.7688-2.26075l14.31421,50.09961A8.00054,8.00054,0,0,0,272,112h21.75391l-5.51465,22.05957a7.999,7.999,0,0,0,5.82031,9.70117l32,8a7.99844,7.99844,0,0,0,8.1875-2.76269l30.30957-37.8877,22.97754-5.71313q.43323.379.864.76123l-42.7976,57.03979a8.00263,8.00263,0,0,0-.75586,8.37988l24,48a8.004,8.004,0,0,0,3.57715,3.57715l32,16a7.99682,7.99682,0,0,0,9.97851-2.35547l18.46484-24.62109L454.752,234.06543a199.07266,199.07266,0,0,1-6.083,75.78613ZM358.06934,96.23633a8.0048,8.0048,0,0,0-4.31641,2.76562L324.96,134.99414l-19.25879-4.81543,6.05957-24.23828A8,8,0,0,0,304,96H278.03418L266.69141,56.29883A200.01528,200.01528,0,0,1,371.62866,92.86475Zm73.36328,95.78418a7.99825,7.99825,0,0,0-5.833,3.17969l-19.99316,26.6582-23.64356-11.82129-20.5957-41.19141L400.012,117.34131a199.69642,199.69642,0,0,1,49.75171,89.10742l-12.10644-12.106A8.00692,8.00692,0,0,0,431.43262,192.02051Z"/><path d="M256,456C152.05078,456,64.457,374.91113,56.583,271.39355l-15.95313,1.2129A216.00827,216.00827,0,0,0,256,472c5.53809,0,11.125-.21191,16.60742-.62988L271.39258,455.417C266.3125,455.80371,261.13379,456,256,456Z"/><path d="M331.2002,292.40039l9.5996-12.80078-8-6a8.00024,8.00024,0,0,0-7.33007-1.18945l-44.28809,14.76269-20.74414-13.8291A8.00221,8.00221,0,0,0,256,272H200.792l-23.22265-4.64453-3.13868,15.68945,24,4.79981A7.9929,7.9929,0,0,0,200,288h53.57812l21.98438,14.65625a8.00266,8.00266,0,0,0,6.96777.93359l44.02344-14.6748Z"/><path d="M245.65723,402.34277A8.00235,8.00235,0,0,0,240,400H188.5293l-20.208-33.68066,7.59863-53.1875a8.00152,8.00152,0,0,0-6.60449-9.02344L122.502,296.30664l-28.71-14.35449-7.68066-13.835-13.98828,7.76562,8.88281,16a7.99921,7.99921,0,0,0,3.416,3.27246l32,16a8.04275,8.04275,0,0,0,2.26269.73633l40.29,6.71485-6.89453,48.26171a8.00271,8.00271,0,0,0,1.05957,5.24805l24,40A8.00153,8.00153,0,0,0,184,416h52.68652l21.65625,21.65723a8.03215,8.03215,0,0,0,2.07911,1.498l8,4,7.15624-14.31054-6.83886-3.41993Z"/><path d="M488,328H296a8.00039,8.00039,0,0,0-8,8V488a8.00039,8.00039,0,0,0,8,8H488a8.00039,8.00039,0,0,0,8-8V336A8.00039,8.00039,0,0,0,488,328Zm-8,38.9873A32.12034,32.12034,0,0,1,457.0127,344H480ZM440.67944,424H424V344h16.67944A48.106,48.106,0,0,0,480,383.3208v1.3584A48.106,48.106,0,0,0,440.67944,424ZM480,401.0127V424H457.0127A32.12034,32.12034,0,0,1,480,401.0127ZM376,424V344h32v80Zm32,16v40H376V440Zm-64.67944-16A48.106,48.106,0,0,0,304,384.6792v-1.3584A48.106,48.106,0,0,0,343.32056,344H360v80Zm-16.33326,0H304V401.0127A32.12034,32.12034,0,0,1,326.9873,424Zm0-80A32.12034,32.12034,0,0,1,304,366.9873V344ZM304,440h56v40H304Zm120,40V440h56v40Z"/><path d="M224,248V216a8.00039,8.00039,0,0,0-8-8h-8V24a8.00039,8.00039,0,0,0-8-8H168a8.00039,8.00039,0,0,0-8,8v80H144V72a8.00039,8.00039,0,0,0-8-8H104a8.00039,8.00039,0,0,0-8,8v40H72a8.00039,8.00039,0,0,0-8,8v40H40a8.00039,8.00039,0,0,0-8,8v40H24a8.00039,8.00039,0,0,0-8,8v32a8.00039,8.00039,0,0,0,8,8H216A8.00039,8.00039,0,0,0,224,248ZM192,32V208H176V32Zm-32,88v88H144V120ZM128,80V208H112V80ZM96,128v80H80V128ZM48,176H64v32H48Zm160,64H32V224H208Z"/><path d="M376,312a145.97794,145.97794,0,0,0-.98633-16.93164l-15.89062,1.86328A129.91974,129.91974,0,0,1,360,312Z"/><path d="M371.99121,278.124a143.52733,143.52733,0,0,0-5.2207-16.95117l-14.96875,5.65039a127.0859,127.0859,0,0,1,4.63476,15.05274Z"/><path d="M335.52734,236.71094a128.503,128.503,0,0,1,9.44727,15.05957l14.11133-7.543a144.63022,144.63022,0,0,0-10.627-16.93848Z"/><path d="M307.291,208.47363a129.24133,129.24133,0,0,1,15.06445,12.86231l11.293-11.334a145.28749,145.28749,0,0,0-16.93555-14.46Z"/><path d="M277.17578,192.19727a127.7728,127.7728,0,0,1,15.10547,6.85644l7.54687-14.10937a143.90932,143.90932,0,0,0-17.002-7.71582Z"/><path d="M265.875,172.00879a143.76431,143.76431,0,0,0-19.41626-3.27441l8.19751-12.29688-13.3125-8.875-16,24a7.99771,7.99771,0,0,0,0,8.875l16,24,13.3125-8.875-7.07813-10.61768a127.60974,127.60974,0,0,1,14.54688,2.61866Z"/></svg>
