<?xml version="1.0" encoding="iso-8859-1"?>
<!-- Generator: Adobe Illustrator 19.0.0, SVG Export Plug-In . SVG Version: 6.00 Build 0)  -->
<svg version="1.1" id="Capa_1" xmlns="http://www.w3.org/2000/svg" xmlns:xlink="http://www.w3.org/1999/xlink" x="0px" y="0px"
	 viewBox="0 0 480 480" style="enable-background:new 0 0 480 480;" xml:space="preserve">
<g>
	<g>
		<g>
			<path d="M342.565,191.959c8.822-47.794-22.771-93.69-70.565-102.511V72c0-4.418-3.582-8-8-8h-32c-4.418,0-8,3.582-8,8v16h-8V72
				c0-4.418-3.582-8-8-8h-32c-4.418,0-8,3.582-8,8v16h-16c-4.418,0-8,3.582-8,8v32c0,4.418,3.582,8,8,8h16v208h-16
				c-4.418,0-8,3.582-8,8v32c0,4.418,3.582,8,8,8h16v16c0,4.418,3.582,8,8,8h32c4.418,0,8-3.582,8-8v-16h8v16c0,4.418,3.582,8,8,8
				h32c4.418,0,8-3.582,8-8v-17.456c41.712-7.742,71.976-44.12,72-86.544c-0.08-24.199-10.076-47.307-27.656-63.936
				c0.64-0.592,1.264-1.2,1.872-1.816C330.836,225.643,339.328,209.5,342.565,191.959z M299.128,246.4
				c16.125,12.074,26.451,30.355,28.467,50.398c3.978,39.543-24.852,74.824-64.395,78.802c-4.103,0.412-7.221,3.876-7.2,8V400h-16
				v-16c0-4.418-3.582-8-8-8h-24c-4.418,0-8,3.582-8,8v16h-16v-16c0-4.418-3.582-8-8-8h-16v-16h16c4.418,0,8-3.582,8-8V128
				c0-4.418-3.582-8-8-8h-16v-16h16c4.418,0,8-3.582,8-8V80h16v16c0,4.418,3.582,8,8,8h24c4.418,0,8-3.582,8-8V80h16v16.4
				c0,4.109,3.112,7.549,7.2,7.96c16.558,1.652,32.032,8.988,43.792,20.761c28.102,28.133,28.077,73.721-0.056,101.823
				c-2.408,2.41-4.994,4.635-7.736,6.656c-0.609,0.451-1.151,0.987-1.609,1.591C294.92,238.711,295.608,243.729,299.128,246.4z"/>
			<path d="M256,120h-48c-4.418,0-8,3.582-8,8v96c0,4.418,3.582,8,8,8h48c30.928,0,56-25.072,56-56C312,145.072,286.928,120,256,120
				z M256,216h-40v-80h40c22.091,0,40,17.909,40,40S278.091,216,256,216z"/>
			<path d="M256,248h-48c-4.418,0-8,3.582-8,8v96c0,4.418,3.582,8,8,8h48c30.928,0,56-25.072,56-56C312,273.072,286.928,248,256,248
				z M256,344h-40v-80h40c22.091,0,40,17.909,40,40C296,326.091,278.091,344,256,344z"/>
			<path d="M240,0C107.452,0,0,107.452,0,240s107.452,240,240,240c132.486-0.15,239.85-107.514,240-240C480,107.452,372.548,0,240,0
				z M240,464C116.288,464,16,363.712,16,240S116.288,16,240,16c123.653,0.141,223.859,100.347,224,224
				C464,363.712,363.712,464,240,464z"/>
			<path d="M240,32C125.125,32,32,125.125,32,240s93.125,208,208,208c114.822-0.128,207.872-93.178,208-208
				C448,125.125,354.875,32,240,32z M240,432c-106.039,0-192-85.961-192-192S133.961,48,240,48
				c105.987,0.123,191.877,86.013,192,192C432,346.039,346.039,432,240,432z"/>
		</g>
	</g>
</g>
<g>
</g>
<g>
</g>
<g>
</g>
<g>
</g>
<g>
</g>
<g>
</g>
<g>
</g>
<g>
</g>
<g>
</g>
<g>
</g>
<g>
</g>
<g>
</g>
<g>
</g>
<g>
</g>
<g>
</g>
</svg>
