<svg id="Layer_1" enable-background="new 0 0 512 512" height="512" viewBox="0 0 512 512" width="512" xmlns="http://www.w3.org/2000/svg"><g><g><path d="m211 435.5v-60c0-4.142-3.358-7.5-7.5-7.5h-166c-4.142 0-7.5 3.358-7.5 7.5v60c0 4.142 3.358 7.5 7.5 7.5h166c4.142 0 7.5-3.358 7.5-7.5zm-70-52.5v9.5c0 4.136-3.364 7.5-7.5 7.5s-7.5-3.364-7.5-7.5v-9.5zm-50.007 0v9.5c0 4.136-3.364 7.5-7.5 7.5s-7.5-3.364-7.5-7.5v-9.5zm105.007 45h-151v-45h15.993v9.5c0 12.407 10.093 22.5 22.5 22.5s22.5-10.093 22.5-22.5v-9.5h5.007v9.5c0 12.407 10.093 22.5 22.5 22.5s22.5-10.093 22.5-22.5v-9.5h40z"/><path d="m504.5 411.275c4.142 0 7.5-3.358 7.5-7.5v-36.275c0-3.612-.656-7.074-1.849-10.275-.009-.03-.014-.061-.024-.091l-16.963-51.76c-3.071-9.195-11.777-15.374-21.664-15.374h-68v-26.5c0-4.142-3.358-7.5-7.5-7.5h-132.5v-34h83.5c16.267 0 29.5-13.233 29.5-29.5v-76c0-3.612-.656-7.074-1.849-10.275-.009-.03-.014-.061-.024-.091l-16.963-51.76c-3.071-9.195-11.777-15.374-21.664-15.374h-112.13c-4.142 0-7.5 3.358-7.5 7.5s3.358 7.5 7.5 7.5h112.13c3.424 0 6.412 2.06 7.423 5.086l9.334 28.482c-1.863-.37-3.787-.568-5.757-.568h-182c-2.023 0-3.999.205-5.909.595l9.473-28.47c1.024-3.065 4.012-5.125 7.436-5.125h16.242c4.142 0 7.5-3.358 7.5-7.5s-3.358-7.5-7.5-7.5h-16.242c-9.887 0-18.593 6.179-21.666 15.382l-17.21 51.72c-.203.61-1.624 7.431-1.624 10.398v76c0 16.267 13.233 29.5 29.5 29.5h83.5v34h-132.5c-4.142 0-7.5 3.358-7.5 7.5v26.5h-68c-9.887 0-18.593 6.179-21.666 15.382l-17.21 51.72c-.203.61-1.624 7.431-1.624 10.398v76c0 16.267 13.233 29.5 29.5 29.5h34.091c4.142 0 7.5-3.358 7.5-7.5s-3.358-7.5-7.5-7.5h-34.091c-7.995 0-14.5-6.505-14.5-14.5v-76c0-7.995 6.505-14.5 14.5-14.5h182c7.995 0 14.5 6.505 14.5 14.5v76c0 7.995-6.505 14.5-14.5 14.5h-115.816c-4.142 0-7.5 3.358-7.5 7.5s3.358 7.5 7.5 7.5h115.816c16.267 0 29.5-13.233 29.5-29.5v-76c0-3.612-.656-7.074-1.849-10.275-.009-.03-.014-.061-.024-.091l-16.963-51.76c-3.071-9.195-11.777-15.374-21.664-15.374h-77v-19h265v19h-77c-9.887 0-18.593 6.179-21.666 15.382l-17.21 51.72c-.203.61-1.624 7.431-1.624 10.398v76c0 16.267 13.233 29.5 29.5 29.5h182c16.267 0 29.5-13.233 29.5-29.5v-8c0-4.142-3.358-7.5-7.5-7.5s-7.5 3.358-7.5 7.5v8c0 7.995-6.505 14.5-14.5 14.5h-182c-7.995 0-14.5-6.505-14.5-14.5v-76c0-7.995 6.505-14.5 14.5-14.5h182c7.995 0 14.5 6.505 14.5 14.5v36.275c0 4.142 3.358 7.5 7.5 7.5zm-354-218.775v-76c0-7.995 6.505-14.5 14.5-14.5h182c7.995 0 14.5 6.505 14.5 14.5v76c0 7.995-6.505 14.5-14.5 14.5h-182c-7.995 0-14.5-6.505-14.5-14.5zm57.423 117.586 9.334 28.482c-1.863-.37-3.787-.568-5.757-.568h-182c-2.023 0-3.999.205-5.909.595l9.473-28.47c1.024-3.065 4.012-5.125 7.436-5.125h160c3.424 0 6.412 2.06 7.423 5.086zm92.577 27.914c-2.023 0-3.999.205-5.909.595l9.473-28.47c1.024-3.066 4.012-5.125 7.436-5.125h160c3.424 0 6.412 2.06 7.423 5.086l9.334 28.482c-1.863-.37-3.787-.568-5.757-.568z"/><path d="m308.5 368c-4.142 0-7.5 3.358-7.5 7.5v60c0 4.142 3.358 7.5 7.5 7.5h166c4.142 0 7.5-3.358 7.5-7.5v-60c0-4.142-3.358-7.5-7.5-7.5zm103.5 15v9.5c0 4.136-3.364 7.5-7.5 7.5s-7.5-3.364-7.5-7.5v-9.5zm-50.007 0v9.5c0 4.136-3.364 7.5-7.5 7.5s-7.5-3.364-7.5-7.5v-9.5zm105.007 45h-151v-45h15.993v9.5c0 12.407 10.093 22.5 22.5 22.5s22.5-10.093 22.5-22.5v-9.5h5.007v9.5c0 12.407 10.093 22.5 22.5 22.5s22.5-10.093 22.5-22.5v-9.5h40z"/><path d="m346.5 184.5v-60c0-4.142-3.358-7.5-7.5-7.5h-166c-4.142 0-7.5 3.358-7.5 7.5v60c0 4.142 3.358 7.5 7.5 7.5h166c4.142 0 7.5-3.358 7.5-7.5zm-70-52.5v9.5c0 4.136-3.364 7.5-7.5 7.5s-7.5-3.364-7.5-7.5v-9.5zm-50.007 0v9.5c0 4.136-3.364 7.5-7.5 7.5s-7.5-3.364-7.5-7.5v-9.5zm105.007 45h-151v-45h15.993v9.5c0 12.407 10.093 22.5 22.5 22.5s22.5-10.093 22.5-22.5v-9.5h5.007v9.5c0 12.407 10.093 22.5 22.5 22.5s22.5-10.093 22.5-22.5v-9.5h40z"/></g></g></svg>