<?xml version="1.0" encoding="iso-8859-1"?>
<!-- Generator: Adobe Illustrator 19.0.0, SVG Export Plug-In . SVG Version: 6.00 Build 0)  -->
<svg version="1.1" id="Capa_1" xmlns="http://www.w3.org/2000/svg" xmlns:xlink="http://www.w3.org/1999/xlink" x="0px" y="0px"
	 viewBox="0 0 512 512" style="enable-background:new 0 0 512 512;" xml:space="preserve">
<g>
	<g>
		<path d="M407.43,247.249c-13.894-23.568-33.176-43.641-56.097-58.48V111.4V30h17.135c8.284,0,15-6.716,15-15s-6.716-15-15-15
			h-32.135H175.667h-32.133c-8.284,0-15,6.716-15,15s6.716,15,15,15h17.133v81.4v77.368c-22.921,14.84-42.203,34.912-56.097,58.48
			c-15.856,26.897-24.237,57.701-24.237,89.083C80.333,433.195,159.138,512,256.001,512c96.862,0,175.666-78.805,175.666-175.668
			C431.667,304.95,423.286,274.146,407.43,247.249z M321.333,96.4H190.667V30h130.666V96.4z"/>
	</g>
</g>
<g>
</g>
<g>
</g>
<g>
</g>
<g>
</g>
<g>
</g>
<g>
</g>
<g>
</g>
<g>
</g>
<g>
</g>
<g>
</g>
<g>
</g>
<g>
</g>
<g>
</g>
<g>
</g>
<g>
</g>
</svg>
